<!-- Generator: Adobe Illustrator 18.1.0, SVG Export Plug-In  -->
<svg version="1.1"
	 xmlns="http://www.w3.org/2000/svg" xmlns:xlink="http://www.w3.org/1999/xlink" xmlns:a="http://ns.adobe.com/AdobeSVGViewerExtensions/3.0/"
	 x="0px" y="0px" width="126.908px" height="20.46px" viewBox="0 0 126.908 20.46" enable-background="new 0 0 126.908 20.46"
	 xml:space="preserve">
<defs>
</defs>
<g>
	<path fill="#FFFFFF" d="M24.72,5.727l-2.822-4.888C21.596,0.322,21.035,0,20.435,0c-0.295,0-0.587,0.078-0.844,0.227
		c-0.808,0.466-1.086,1.503-0.619,2.311c0.002,0.003,0.003,0.006,0.005,0.009l0.615,1.065c0.064,0.117,0.096,0.244,0.096,0.373
		c0,0.427-0.347,0.774-0.774,0.774h-0.018H6.051H6.033c-0.427,0-0.774-0.347-0.774-0.774c0-0.129,0.033-0.257,0.094-0.37
		l0.616-1.067c0.002-0.003,0.004-0.007,0.005-0.01C6.2,2.147,6.26,1.691,6.143,1.254C6.026,0.818,5.746,0.453,5.355,0.227
		C5.098,0.078,4.806,0,4.511,0c-0.6,0-1.161,0.322-1.463,0.839L0.226,5.727C-0.24,6.535,0.038,7.572,0.846,8.038
		C1.103,8.187,1.395,8.265,1.69,8.265l0.012,0l0.621,0c0.054,0,0.532,0.016,0.845,0.558l5.412,9.351
		c0.003,0.004,0.005,0.008,0.007,0.012c0.789,1.403,2.277,2.274,3.884,2.274c1.609,0,3.097-0.872,3.886-2.274
		c0.002-0.004,0.004-0.007,0.007-0.011l5.413-9.352c0.313-0.542,0.792-0.558,0.845-0.558l0.62,0l0.013,0
		c0.295,0,0.587-0.078,0.844-0.227c0.391-0.226,0.671-0.591,0.788-1.027C25.006,6.574,24.946,6.118,24.72,5.727z M17.169,9.793
		l-3.839,6.65c-0.178,0.309-0.496,0.499-0.853,0.51c0,0-0.003,0-0.004,0c-0.001,0-0.003,0-0.003,0
		c-0.358-0.01-0.677-0.201-0.854-0.51l-3.839-6.65c-0.182-0.315-0.183-0.706-0.002-1.02C7.956,8.46,8.294,8.265,8.658,8.265h3.815
		h3.814c0.365,0,0.703,0.195,0.884,0.509C17.352,9.088,17.352,9.478,17.169,9.793z"/>
	<path fill="#FFFFFF" d="M121.994,3.48c-1.31,0-2.544,0.512-3.473,1.441l-0.122,0.122l-0.122-0.122
		c-0.929-0.929-2.163-1.441-3.473-1.441c-2.71,0-4.914,2.205-4.914,4.914v7.181c0,0.727,0.592,1.319,1.319,1.319
		c0.727,0,1.319-0.592,1.319-1.319V8.395c0-1.255,1.021-2.276,2.276-2.276s2.276,1.021,2.276,2.276v7.181
		c0,0.727,0.592,1.319,1.319,1.319c0.727,0,1.319-0.592,1.319-1.319V8.395c0-1.255,1.021-2.276,2.276-2.276s2.276,1.021,2.276,2.276
		v7.181c0,0.727,0.592,1.319,1.319,1.319c0.727,0,1.319-0.592,1.319-1.319V8.395C126.908,5.685,124.703,3.48,121.994,3.48z"/>
	<path fill="#FFFFFF" d="M89.771,6.723c0.208,0.128,0.446,0.195,0.689,0.195c0.463,0,0.884-0.235,1.125-0.629
		c0.38-0.62,0.186-1.434-0.434-1.814c-1.059-0.65-2.279-0.994-3.528-0.994c-3.722,0-6.751,3.028-6.751,6.751
		s3.028,6.751,6.751,6.751c1.248,0,2.468-0.344,3.527-0.994c0.62-0.381,0.815-1.194,0.434-1.814
		c-0.242-0.394-0.663-0.629-1.125-0.629c-0.243,0-0.481,0.067-0.689,0.195c-0.644,0.395-1.387,0.604-2.147,0.604
		c-2.268,0-4.113-1.845-4.113-4.113s1.845-4.113,4.113-4.113C88.385,6.118,89.127,6.327,89.771,6.723z"/>
	<path fill="#FFFFFF" d="M100.834,3.48c-3.722,0-6.751,3.028-6.751,6.751s3.028,6.751,6.751,6.751c3.722,0,6.751-3.028,6.751-6.751
		S104.557,3.48,100.834,3.48z M100.834,14.344c-2.268,0-4.113-1.845-4.113-4.113s1.845-4.113,4.113-4.113
		c2.268,0,4.113,1.845,4.113,4.113S103.102,14.344,100.834,14.344z"/>
	<circle fill="#FFFFFF" cx="77.169" cy="15.292" r="1.401"/>
	<g>
		<path fill="#FFFFFF" d="M43.685,3.478c-3.288,0-5.962,2.675-5.962,5.962v6.205c0,0.737,0.599,1.336,1.336,1.336
			c0.737,0,1.336-0.599,1.336-1.336V9.441c0-1.814,1.476-3.29,3.29-3.29c1.814,0,3.29,1.476,3.29,3.29v6.205
			c0,0.737,0.599,1.336,1.336,1.336c0.737,0,1.336-0.599,1.336-1.336V9.441C49.648,6.153,46.973,3.478,43.685,3.478z"/>
		<path fill="#FFFFFF" d="M72.128,3.478c-0.737,0-1.336,0.599-1.336,1.336v6.205c0,1.814-1.476,3.29-3.29,3.29
			c-1.814,0-3.29-1.476-3.29-3.29V4.815c0-0.737-0.599-1.336-1.336-1.336c-0.737,0-1.336,0.599-1.336,1.336v6.205
			c0,3.288,2.675,5.962,5.962,5.962c3.288,0,5.962-2.675,5.962-5.962V4.815C73.464,4.078,72.865,3.478,72.128,3.478z"/>
		<path fill="#FFFFFF" d="M55.594,3.478c-0.737,0-1.336,0.599-1.336,1.336v10.744c0,0.737,0.599,1.336,1.336,1.336
			c0.737,0,1.336-0.599,1.336-1.336V4.815C56.93,4.078,56.33,3.478,55.594,3.478z"/>
	</g>
</g>
</svg>