<!-- Generator: Adobe Illustrator 18.1.0, SVG Export Plug-In  -->
<svg version="1.1"
	 xmlns="http://www.w3.org/2000/svg" xmlns:xlink="http://www.w3.org/1999/xlink" xmlns:a="http://ns.adobe.com/AdobeSVGViewerExtensions/3.0/"
	 x="0px" y="0px" width="10.32px" height="14px" viewBox="0 0 10.32 14" enable-background="new 0 0 10.32 14" xml:space="preserve"
	>
<defs>
</defs>
<path fill="#7F7F7F" d="M3.853,7.894C2.823,6.241,2.94,5.406,2.828,4.698C2.79,4.456,2.889,4.214,3.086,4.068l0.76-0.565
	C4.129,3.292,4.224,2.91,4.071,2.592L3.093,0.548c-0.26-0.542-0.947-0.718-1.434-0.366L0.754,0.833
	C0.207,1.227-0.076,1.89,0.018,2.557c0.239,1.713-0.134,3.438,1.829,6.588c1.963,3.15,3.676,3.574,5.108,4.544
	c0.558,0.377,1.277,0.416,1.871,0.098l0.983-0.525c0.53-0.283,0.675-0.977,0.303-1.449l-1.403-1.779
	C8.49,9.756,8.106,9.672,7.792,9.834L6.95,10.268c-0.218,0.112-0.479,0.094-0.679-0.047C5.684,9.809,4.883,9.546,3.853,7.894z"/>
</svg>