<?xml version="1.0" standalone="no"?>
<!DOCTYPE svg PUBLIC "-//W3C//DTD SVG 20010904//EN"
 "http://www.w3.org/TR/2001/REC-SVG-20010904/DTD/svg10.dtd">
<svg version="1.0" xmlns="http://www.w3.org/2000/svg"
 width="300.000000pt" height="300.000000pt" viewBox="0 0 300.000000 300.000000"
 preserveAspectRatio="xMidYMid meet">
<metadata>
Created by potrace 1.11, written by Peter Selinger 2001-2013
</metadata>
<g transform="translate(0.000000,300.000000) scale(0.100000,-0.100000)"
fill="#000000" stroke="none">
<path d="M733 2458 c-56 -12 -78 -37 -163 -185 -40 -71 -101 -175 -135 -233
-34 -58 -67 -119 -73 -137 -23 -68 12 -154 78 -188 16 -8 59 -16 94 -18 76 -3
92 -14 138 -96 18 -31 58 -100 90 -154 32 -53 58 -99 58 -101 0 -2 25 -45 55
-95 30 -51 55 -94 55 -96 0 -3 15 -28 34 -57 18 -29 42 -69 52 -88 90 -166
157 -271 199 -315 127 -132 314 -163 480 -81 98 48 141 99 247 286 14 25 49
86 78 135 29 50 62 108 75 130 51 91 226 391 235 405 6 8 20 33 31 56 28 54
50 66 127 71 36 2 77 10 93 18 65 34 103 131 75 194 -10 23 -100 183 -166 295
-14 23 -44 76 -67 117 -47 83 -83 121 -128 136 -98 33 -205 -47 -205 -151 0
-24 16 -67 46 -124 41 -80 44 -90 33 -115 -7 -15 -21 -30 -33 -34 -31 -10
-1216 -11 -1248 0 -17 5 -31 20 -37 40 -10 28 -7 38 30 101 52 91 60 153 27
210 -37 64 -100 91 -175 74z m1192 -788 c42 -43 39 -79 -16 -171 -27 -45 -49
-83 -49 -84 0 -2 -82 -145 -129 -223 -17 -29 -31 -55 -31 -58 0 -3 -15 -28
-33 -57 -18 -29 -41 -69 -52 -90 -41 -80 -89 -106 -143 -80 -28 13 -47 45
-335 546 -66 114 -74 133 -70 162 5 36 37 73 67 77 11 2 189 4 393 4 l373 -1
25 -25z"/>
</g>
</svg>
