<svg id="图层_1" data-name="图层 1" xmlns="http://www.w3.org/2000/svg" viewBox="0 0 40 40"><defs><style>.cls-1{fill:#231815;}</style></defs><title>se-icon</title><path class="cls-1" d="M70.24-83.13a20,20,0,0,1-20-20,20,20,0,0,1,20-20,20,20,0,0,1,20,20,20,20,0,0,1-20,20m0-37.5a17.52,17.52,0,0,0-17.5,17.5,17.52,17.52,0,0,0,17.5,17.5,17.52,17.52,0,0,0,17.5-17.5,17.52,17.52,0,0,0-17.5-17.5" transform="translate(-50.24 123.13)"/><path class="cls-1" d="M57.63-96.42v-3.71h1.66A3.54,3.54,0,0,0,62.41-98a2.42,2.42,0,0,0,1.66-.6,2,2,0,0,0,.68-1.57,1.59,1.59,0,0,0-.55-1.36,6.67,6.67,0,0,0-2.09-.83,15.18,15.18,0,0,1-2.64-.9,3.4,3.4,0,0,1-1.37-1.21,3.35,3.35,0,0,1-.51-1.87A3.41,3.41,0,0,1,58.69-109a4,4,0,0,1,2.79-1,4.8,4.8,0,0,1,3,1v-0.89h1.62v3.1H64.44a3.21,3.21,0,0,0-2.82-1.54,2.48,2.48,0,0,0-1.67.5,1.53,1.53,0,0,0-.58,1.2,1.55,1.55,0,0,0,.29.94,1.76,1.76,0,0,0,.75.6,15.56,15.56,0,0,0,1.8.53,14.1,14.1,0,0,1,2.55.85,3.46,3.46,0,0,1,1.36,1.32,4,4,0,0,1,.57,2.13,3.66,3.66,0,0,1-1.2,2.81,4.2,4.2,0,0,1-3,1.11,4.75,4.75,0,0,1-3.26-1.31v1.16H57.63Z" transform="translate(-50.24 123.13)"/><polygon class="cls-1" points="22.12 25.04 22.12 14.96 20.87 14.96 20.87 13.3 30.51 13.3 30.51 16.16 28.87 16.16 28.87 14.96 24.13 14.96 24.13 19.17 28.87 19.17 28.87 20.83 24.13 20.83 24.13 25.04 28.87 25.04 28.87 23.84 30.51 23.84 30.51 26.7 20.87 26.7 20.87 25.04 22.12 25.04"/><path class="cls-1" d="M84.47-97.53a1.21,1.21,0,0,1-1.21,1.21,1.21,1.21,0,0,1-1.21-1.21,1.21,1.21,0,0,1,1.21-1.21,1.21,1.21,0,0,1,1.21,1.21" transform="translate(-50.24 123.13)"/><path class="cls-1" d="M69.8-97.53a1.21,1.21,0,0,1-1.21,1.21,1.21,1.21,0,0,1-1.21-1.21,1.21,1.21,0,0,1,1.21-1.21,1.21,1.21,0,0,1,1.21,1.21" transform="translate(-50.24 123.13)"/></svg>